<svg width="15" height="21" viewBox="0 0 15 21" fill="none" xmlns="http://www.w3.org/2000/svg">
<path d="M14.5411 3.52547V2.54452C14.5411 1.4634 13.9995 0.584729 13.2746 0.582642L2.1579 0.59099C1.47882 0.634819 0.941391 1.13364 0.940002 2.16676L0.945557 14.3137C0.97472 15.3573 1.54826 16.1942 2.25511 16.1942H2.95364V16.2005L5.50609 16.1942C5.86993 16.1942 6.16295 16.0106 6.16295 15.4679C6.16295 14.9253 5.86855 14.6435 5.50609 14.6435L2.72311 14.6498C2.21623 14.6038 2.04403 14.4285 1.98848 13.817L1.98431 2.9536C2.05236 2.3859 2.23567 2.21685 2.71478 2.16884L13.5023 2.1605V2.18137L12.6441 2.17302C13.2773 2.19389 13.4523 2.33581 13.5023 3.14144L13.4954 13.7168C13.4565 14.4828 13.3023 14.631 12.7441 14.6602L8.25158 14.6685C8.10437 14.5934 7.95023 14.6268 7.80719 14.7604C7.70859 14.8251 7.62943 14.9253 7.57666 15.0567L5.00477 18.8636C4.74785 19.2477 4.65064 19.8487 4.90756 20.2307C5.16447 20.6147 5.58108 20.4477 5.8366 20.0637L8.44322 16.2026L12.5719 16.1963V16.1942H13.2704C13.9967 16.1942 14.5397 15.3155 14.5397 14.2302V13.2493H14.5411L14.548 3.52964L14.5411 3.52547ZM13.4926 14.6602H13.1579L13.4926 14.656V14.6602ZM12.6413 2.17511C12.5135 2.17093 12.3705 2.17093 12.2052 2.17093L12.6413 2.17511ZM8.52376 8.41348C8.52376 7.76647 8.17242 7.24261 7.73914 7.24261C7.30586 7.24261 6.95452 7.76647 6.95452 8.41348C6.95452 9.06048 7.30586 9.58434 7.73914 9.58434C8.17242 9.58434 8.52376 9.06048 8.52376 8.41348ZM4.07711 8.41348C4.07711 9.06048 4.42845 9.58434 4.86173 9.58434C5.29501 9.58434 5.64635 9.06048 5.64635 8.41348C5.64635 7.76647 5.29501 7.24261 4.86173 7.24261C4.42845 7.24261 4.07711 7.76647 4.07711 8.41348ZM11.4012 8.41348C11.4012 7.76647 11.0498 7.24261 10.6166 7.24261C10.1833 7.24261 9.83193 7.76647 9.83193 8.41348C9.83193 9.06048 10.1833 9.58434 10.6166 9.58434C11.0498 9.58434 11.4012 9.06048 11.4012 8.41348Z" fill="#BDBDBD"/>
</svg>
